<svg xmlns="http://www.w3.org/2000/svg" viewBox="0 0 283.8 280.5"><title>following</title><path d="M196.2,70.9h-.4V51.5A51.7,51.7,0,0,0,144.3,0h-5.1A51.6,51.6,0,0,0,87.8,51.5V70.9h-.6a10,10,0,0,0-9.9,9.9V94.9a10.4,10.4,0,0,0,10.4,10.3h.1a54.5,54.5,0,0,0,23.6,44c0,5.3-1.7,12.7-11,16.3C75.8,174.8,0,199.9,0,249.2H110.5a70.9,70.9,0,0,1-3.2-20.6c0-29.9,17.1-56.4,45-71a54.3,54.3,0,0,0,43.4-52.4A10.3,10.3,0,0,0,206,94.9V80.8A9.9,9.9,0,0,0,196.2,70.9Z" style="fill:#b5b6b6"/><path d="M280.8,228.6l-44.6-37a8.4,8.4,0,1,0-10.7,12.9l26.9,22.3H166.1a8.4,8.4,0,0,0,0,16.8h86l-26.6,22.1a8.4,8.4,0,0,0-1.1,11.8,8.5,8.5,0,0,0,6.5,3,8,8,0,0,0,5.3-1.9l44.6-37.1a8.2,8.2,0,0,0,3-6.4A8.5,8.5,0,0,0,280.8,228.6Z" style="fill:#b5b6b6"/></svg>