<svg xmlns="http://www.w3.org/2000/svg" viewBox="0 0 271.9 268.8"><title>followers</title><path d="M187.9,68h-.4V49.4A49.4,49.4,0,0,0,138.3,0h-4.9A49.5,49.5,0,0,0,84.1,49.4V68h-.6a9.4,9.4,0,0,0-9.4,9.4V90.9a10,10,0,0,0,9.9,9.9h.1a52.1,52.1,0,0,0,22.7,42.1c0,5.1-1.7,12.2-10.6,15.6-23.6,9-96.2,33-96.2,80.3H105.9a69.4,69.4,0,0,1-3.1-19.8c0-28.7,16.4-54,43.1-68a52,52,0,0,0,41.6-50.2,10,10,0,0,0,9.9-9.9V77.4A9.5,9.5,0,0,0,187.9,68Z" style="fill:#b5b6b6"/><path d="M263.9,217.1H181.5l25.4-21.2a8,8,0,1,0-10.3-12.3L154,219a8.1,8.1,0,0,0-3,6.2,7.9,7.9,0,0,0,3,6.2l42.6,35.5a8.5,8.5,0,0,0,5.2,1.9,7.9,7.9,0,0,0,6.2-3,8.1,8.1,0,0,0-1.1-11.3l-25.7-21.4h82.7a8,8,0,0,0,0-16Z" style="fill:#b5b6b6"/></svg>