<svg xmlns="http://www.w3.org/2000/svg" viewBox="0 0 95.1 90.7"><title>likeIcon</title><rect y="38.2" width="22.3" height="41.49" style="fill:#b5b6b6"/><path d="M83.8,38h-10c-3.6-.1-6.5-4.1,1.8-18.2C82.4,8.2,76.7.6,73.3,0s-4.9,5.6-4.9,5.6S66,15.6,53.3,24.2c-7.8,5.4-11.6,9.5-13.4,12a5,5,0,0,1-3.9,2H27.5V79.7h4.9c5.4,0,9,1.8,13.2,5.1s6.7,5.9,13,5.9H79.9a9.1,9.1,0,0,0,2.3-.3A8.9,8.9,0,0,0,87,87.9a10.6,10.6,0,0,0,3.4-6.2A100.8,100.8,0,0,0,93,68.4c.8-5.1,1.6-10,2-15.2C95.6,46.2,92.4,38,83.8,38Z" style="fill:#b5b6b6"/></svg>